# File produced by Open Asset Import Library (http://www.assimp.sf.net)
# (assimp v3.1.151580502)

mtllib IceCubeModel.mtl

# 24 vertex positions
v  -1.02153 2.73211 2.6597
v  -1.02153 0.689061 2.6597
v  1.02153 0.689061 2.6597
v  1.02153 2.73211 2.6597
v  -0.980122 3.12282 -2.13065
v  -0.980122 3.12282 2.13065
v  0.980122 3.12282 2.13065
v  0.980122 3.12282 -2.13065
v  -1.01988 0.690711 -2.65318
v  -1.01988 2.73046 -2.65318
v  1.01988 2.73046 -2.65318
v  1.01988 0.690711 -2.65318
v  -0.976761 0.299088 2.12335
v  -0.976761 0.299088 -2.12335
v  0.976761 0.299088 -2.12335
v  0.976761 0.299088 2.12335
v  1.14773 2.85832 2.49501
v  1.14773 0.562857 2.49501
v  1.14773 0.562857 -2.49501
v  1.14773 2.85832 -2.49501
v  -1.14773 2.85832 -2.49501
v  -1.14773 0.562857 -2.49501
v  -1.14773 0.562857 2.49501
v  -1.14773 2.85832 2.49501

# 30 UV coordinates
vt 0.401334 0.229953 0
vt 0.401652 0.0228603 0
vt 0.613814 0.0217183 0
vt 0.616224 0.228695 0
vt 0.413975 0.470346 0
vt 0.414304 0.271515 0
vt 0.605414 0.271777 0
vt 0.605957 0.470595 0
vt 0.403666 0.722169 0
vt 0.402986 0.51361 0
vt 0.619084 0.512317 0
vt 0.620309 0.720885 0
vt 0.414835 0.962386 0
vt 0.416755 0.764098 0
vt 0.609317 0.764321 0
vt 0.611335 0.962454 0
vt 0.631369 0.242942 0
vt 0.628331 0.00718808 0
vt 0.863137 0.00640544 0
vt 0.865012 0.24114 0
vt 0.152846 0.245369 0
vt 0.152033 0.0105829 0
vt 0.386868 0.00859708 0
vt 0.386458 0.244505 0
vt 0.634014 0.497612 0
vt 0.387808 0.4992 0
vt 0.388671 0.736873 0
vt 0.635548 0.735299 0
vt 0.640435 0.989643 0
vt 0.387591 0.991457 0

# 31 vertex normals
vn 0 0 1
vn 0 1 0
vn 0 0 -1
vn 0 -1 0
vn 1 0 0
vn -1 0 0
vn 0 0.809246 0.58747
vn 0.844691 0.535254 0
vn 0 0.809246 -0.58747
vn -0.844691 0.535254 0
vn 0 -0.815498 -0.578761
vn 0 -0.815498 -0.57876
vn 0.839143 -0.54391 0
vn 0 -0.815498 0.578761
vn 0 -0.815498 0.57876
vn -0.839143 -0.54391 0
vn 0 -0.793752 0.608241
vn 0.793752 0 0.608242
vn 0.793752 0 0.608242
vn 0 0.793752 0.608241
vn 0 0.793752 0.608241
vn -0.793752 0 0.608242
vn -0.793752 0 0.608242
vn 0 0.777707 -0.628627
vn 0 0.777707 -0.628627
vn 0.777706 0 -0.628628
vn 0.777707 0 -0.628628
vn 0 -0.777707 -0.628627
vn 0 -0.777707 -0.628627
vn -0.777706 0 -0.628628
vn -0.777707 0 -0.628628

# Mesh 'pCube1_pCube1' with 44 faces
g pCube1_pCube1
usemtl lambert1
f  1/1/1 2/2/1 3/3/1
f  3/3/1 4/4/1 1/1/1
f  5/5/2 6/6/2 7/7/2
f  7/7/2 8/8/2 5/5/2
f  9/9/3 10/10/3 11/11/3
f  11/11/3 12/12/3 9/9/3
f  13/13/4 14/14/4 15/15/4
f  15/15/4 16/16/4 13/13/4
f  17/17/5 18/18/5 19/19/5
f  19/19/5 20/20/5 17/17/5
f  21/21/6 22/22/6 23/23/6
f  23/23/6 24/24/6 21/21/6
f  6/6/7 24/24/7 17/17/7
f  17/17/7 7/7/7 6/6/7
f  7/7/8 17/17/8 20/25/8
f  20/25/8 8/8/8 7/7/8
f  8/8/9 20/25/9 21/26/9
f  21/26/9 5/5/9 8/8/9
f  5/5/10 21/26/10 24/24/10
f  24/24/10 6/6/10 5/5/10
f  14/14/11 22/27/12 19/28/12
f  19/28/12 15/15/11 14/14/11
f  15/15/13 19/28/13 18/29/13
f  18/29/13 16/16/13 15/15/13
f  16/16/14 18/29/15 23/30/15
f  23/30/15 13/13/14 16/16/14
f  13/13/16 23/30/16 22/27/16
f  22/27/16 14/14/16 13/13/16
f  2/2/17 23/23/17 18/18/17
f  18/18/17 3/3/17 2/2/17
f  3/3/18 18/18/19 17/17/19
f  17/17/19 4/4/18 3/3/18
f  4/4/20 17/17/21 24/24/21
f  24/24/21 1/1/20 4/4/20
f  1/1/22 24/24/23 23/23/23
f  23/23/23 2/2/22 1/1/22
f  10/10/24 21/26/25 20/25/25
f  20/25/25 11/11/24 10/10/24
f  11/11/26 20/25/27 19/28/27
f  19/28/27 12/12/26 11/11/26
f  12/12/28 19/28/29 22/27/29
f  22/27/29 9/9/28 12/12/28
f  9/9/30 22/27/31 21/26/31
f  21/26/31 10/10/30 9/9/30

