# File produced by Open Asset Import Library (http://www.assimp.sf.net)
# (assimp v3.1.151580502)

mtllib SpeedyBrick.mtl

# 44 vertex positions
v  0.0844339 2.41839 -1.54507
v  -0.0844339 2.41839 -1.54507
v  -0.298766 2.63273 -1.51112
v  0.298766 2.63273 -1.51112
v  -0.492118 2.82608 -1.4126
v  0.492118 2.82608 -1.4126
v  -0.645563 2.97952 -1.25916
v  0.645563 2.97952 -1.25916
v  -0.744081 3.07804 -1.06581
v  0.744081 3.07804 -1.06581
v  -0.778028 3.11199 -0.851474
v  0.778028 3.11199 -0.851474
v  -0.778028 3.11199 1.54507
v  0.778028 3.11199 1.54507
v  -0.0844339 2.41826 -1.54507
v  0.0844339 2.41826 -1.54507
v  -0.778028 1.72466 1.54507
v  -0.778028 1.72466 -0.851474
v  0.778028 1.72466 -0.851474
v  0.778028 1.72466 1.54507
v  0.744081 1.75861 -1.06581
v  0.645563 1.85713 -1.25916
v  0.492118 2.01057 -1.4126
v  0.298766 2.20392 -1.51112
v  -0.744081 1.75861 -1.06581
v  -0.645563 1.85713 -1.25916
v  -0.492118 2.01057 -1.4126
v  -0.298766 2.20392 -1.51112
v  0.686235 1.81645 2.00408
v  -0.686235 1.81645 2.00408
v  -0.732132 1.77056 1.99178
v  0.732132 1.77056 1.99178
v  -0.76573 1.73696 1.95818
v  0.76573 1.73696 1.95818
v  -0.778028 1.72466 1.91229
v  0.778028 1.72466 1.91229
v  -0.686235 3.0202 2.00408
v  0.686235 3.0202 2.00408
v  0.778028 3.11199 1.91229
v  -0.778028 3.11199 1.91229
v  0.76573 3.09969 1.95818
v  0.732132 3.06609 1.99178
v  -0.76573 3.09969 1.95818
v  -0.732132 3.06609 1.99178

# 55 UV coordinates
vt 0.513565 0.624987 0
vt 0.486435 0.624988 0
vt 0.444185 0.578334 0
vt 0.555815 0.578334 0
vt 0.406491 0.535536 0
vt 0.593509 0.535536 0
vt 0.375 0.5 0
vt 0.625 0.5 0
vt 0.375 0.466474 0
vt 0.625 0.466474 0
vt 0.375 0.443886 0
vt 0.625 0.443886 0
vt 0.375 0.25 0
vt 0.625 0.25 0
vt 0.486435 0.625012 0
vt 0.513565 0.625013 0
vt 0.375 1 0
vt 0.375 0.806114 0
vt 0.625 0.806114 0
vt 0.625 1 0
vt 0.625 0 0
vt 0.818886 -1.49012e-08 0
vt 0.818886 0.25 0
vt 0.181114 0.25 0
vt 0.181114 -1.49012e-08 0
vt 0.375 0 0
vt 0.841474 -8.90298e-09 0
vt 0.841474 0.25 0
vt 0.875 0 0
vt 0.875 0.25 0
vt 0.593509 0.714464 0
vt 0.625 0.75 0
vt 0.555815 0.671666 0
vt 0.158526 0.25 0
vt 0.158526 -8.90298e-09 0
vt 0.125 0.25 0
vt 0.125 0 0
vt 0.375 0.75 0
vt 0.406491 0.714464 0
vt 0.444185 0.671666 0
vt 0.375 0.783526 0
vt 0.625 0.783526 0
vt 0.610252 0.0165414 0
vt 0.389748 0.0165413 0
vt 0.379138 0.00460771 0
vt 0.616977 0.00886038 0
vt 0.376259 0.00130096 0
vt 0.622203 0.00298952 0
vt 0.389748 0.233459 0
vt 0.610252 0.233459 0
vt 0.375 0.25 0
vt 0.6222 0.247013 0
vt 0.616977 0.24114 0
vt 0.377803 0.247018 0
vt 0.383025 0.241142 0

# 54 vertex normals
vn 0.05822 0.0990965 -0.993373
vn -0.0582197 0.0990965 -0.993373
vn -0.195302 0.242562 -0.950274
vn 0.195302 0.242562 -0.950274
vn 0 0.659621 -0.751599
vn 0 0.852602 -0.522561
vn 0 0.966689 -0.255954
vn 0 0.999944 -0.0105576
vn 0 1 0
vn -0.0582196 -0.0990965 -0.993373
vn 0.05822 -0.0990965 -0.993373
vn 0 -1 0
vn 0 -0.999944 -0.0105578
vn 1 0 0
vn 0.999947 0 -0.0102523
vn 0.999947 0 -0.0102524
vn -0.999947 0 -0.0102524
vn -0.999947 0 -0.0102523
vn -1 0 0
vn 0.968747 0 -0.248049
vn 0.968747 0 -0.248049
vn 0.858239 0 -0.513251
vn 0.858239 0 -0.513251
vn 0.669057 0 -0.743211
vn 0.195302 -0.242562 -0.950274
vn -0.968747 0 -0.248049
vn -0.968747 0 -0.248049
vn -0.858239 0 -0.513251
vn -0.858239 0 -0.513251
vn -0.669057 0 -0.743211
vn -0.195302 -0.242562 -0.950274
vn 0 -0.966689 -0.255954
vn 0 -0.852603 -0.522559
vn 0 -0.659621 -0.751599
vn 0.0128402 -0.0138865 0.999821
vn -0.0128402 -0.0138865 0.999821
vn -0.323509 -0.355876 0.876752
vn 0.323509 -0.355876 0.876752
vn 0 -0.914132 0.405416
vn 0 -0.999755 0.0221559
vn -0.0128402 0.0138865 0.999821
vn 0.0128402 0.0138865 0.999821
vn 0.999777 0 0.021131
vn 0.999777 0 0.0211311
vn 0 0.999755 0.0221556
vn -0.999777 0 0.0211311
vn -0.999777 0 0.021131
vn 0.920794 0 0.390049
vn 0.920794 0 0.390049
vn 0.323509 0.355875 0.876752
vn 0 0.914133 0.405415
vn -0.323509 0.355875 0.876752
vn -0.920794 0 0.390049
vn -0.920794 0 0.390049

# Mesh 'pCube1_pCube1' with 84 faces
g pCube1_pCube1
usemtl lambert1
f  1/1/1 2/2/2 3/3/3
f  3/3/3 4/4/4 1/1/1
f  4/4/4 3/3/3 5/5/5
f  5/5/5 6/6/5 4/4/4
f  6/6/5 5/5/5 7/7/6
f  7/7/6 8/8/6 6/6/5
f  8/8/6 7/7/6 9/9/7
f  9/9/7 10/10/7 8/8/6
f  10/10/7 9/9/7 11/11/8
f  11/11/8 12/12/8 10/10/7
f  11/11/8 13/13/9 14/14/9
f  14/14/9 12/12/8 11/11/8
f  15/15/10 2/2/2 1/1/1
f  1/1/1 16/16/11 15/15/10
f  17/17/12 18/18/13 19/19/13
f  19/19/13 20/20/12 17/17/12
f  14/14/14 20/21/14 19/22/15
f  19/22/15 12/23/16 14/14/14
f  11/24/17 18/25/18 17/26/19
f  17/26/19 13/13/19 11/24/17
f  21/27/20 10/28/21 12/23/16
f  12/23/16 19/22/15 21/27/20
f  22/29/22 8/30/23 10/28/21
f  10/28/21 21/27/20 22/29/22
f  23/31/24 6/6/24 8/8/23
f  8/8/23 22/32/22 23/31/24
f  16/16/11 1/1/1 4/4/4
f  4/4/4 24/33/25 16/16/11
f  24/33/25 4/4/4 6/6/24
f  6/6/24 23/31/24 24/33/25
f  18/25/18 11/24/17 9/34/26
f  9/34/26 25/35/27 18/25/18
f  25/35/27 9/34/26 7/36/28
f  7/36/28 26/37/29 25/35/27
f  26/38/29 7/7/28 5/5/30
f  5/5/30 27/39/30 26/38/29
f  27/39/30 5/5/30 3/3/3
f  3/3/3 28/40/31 27/39/30
f  28/40/31 3/3/3 2/2/2
f  2/2/2 15/15/10 28/40/31
f  19/19/13 18/18/13 25/41/32
f  25/41/32 21/42/32 19/19/13
f  21/42/32 25/41/32 26/38/33
f  26/38/33 22/32/33 21/42/32
f  22/32/33 26/38/33 27/39/34
f  27/39/34 23/31/34 22/32/33
f  23/31/34 27/39/34 28/40/31
f  28/40/31 24/33/25 23/31/34
f  24/33/25 28/40/31 15/15/10
f  15/15/10 16/16/11 24/33/25
f  29/43/35 30/44/36 31/45/37
f  31/45/37 32/46/38 29/43/35
f  32/46/38 31/45/37 33/47/39
f  33/47/39 34/48/39 32/46/38
f  34/48/39 33/47/39 35/26/40
f  35/26/40 36/21/40 34/48/39
f  37/49/41 30/44/36 29/43/35
f  29/43/35 38/50/42 37/49/41
f  35/26/40 17/26/12 20/21/12
f  20/21/12 36/21/40 35/26/40
f  36/21/43 20/21/14 14/14/14
f  14/14/14 39/14/44 36/21/43
f  39/14/45 14/14/9 13/13/9
f  13/13/9 40/51/45 39/14/45
f  40/51/46 13/13/19 17/26/19
f  17/26/19 35/26/47 40/51/46
f  41/52/48 34/48/49 36/21/43
f  36/21/43 39/14/44 41/52/48
f  38/50/42 29/43/35 32/46/38
f  32/46/38 42/53/50 38/50/42
f  42/53/50 32/46/38 34/48/49
f  34/48/49 41/52/48 42/53/50
f  43/54/51 41/52/51 39/14/45
f  39/14/45 40/51/45 43/54/51
f  37/49/41 38/50/42 42/53/50
f  42/53/50 44/55/52 37/49/41
f  44/55/52 42/53/50 41/52/51
f  41/52/51 43/54/51 44/55/52
f  40/51/46 35/26/47 33/47/53
f  33/47/53 43/54/54 40/51/46
f  43/54/54 33/47/53 31/45/37
f  31/45/37 44/55/52 43/54/54
f  44/55/52 31/45/37 30/44/36
f  30/44/36 37/49/41 44/55/52

